Metropolis-BlackItalic.ufo
<glyph name="exclam" format="2">
	<advance width="342"/>
	<unicode hex="0021"/>
	<guideline x="185" y="219" angle="78.5"/>
	<outline>
		<contour>
			<point x="148" y="687" type="line"/>
			<point x="105" y="274" type="line"/>
			<point x="235" y="274" type="line"/>
			<point x="363" y="687" type="line"/>
		</contour>
		<contour>
			<point x="133" y="-12" type="curve"/>
			<point x="133" y="-12" type="line"/>
			<point x="197" y="-12"/>
			<point x="258" y="46"/>
			<point x="258" y="116" type="curve"/>
			<point x="258" y="172"/>
			<point x="216" y="219"/>
			<point x="157" y="219" type="curve"/>
			<point x="90" y="219"/>
			<point x="28" y="165"/>
			<point x="28" y="93" type="curve"/>
			<point x="28" y="34"/>
			<point x="70" y="-12"/>
		</contour>
	</outline>
</glyph>
<glyph name="numbersign" format="2">
	<advance width="692"/>
	<unicode hex="0023"/>
	<outline>
		<contour>
			<point x="339" y="687" type="line"/>
			<point x="23" y="0" type="line"/>
			<point x="161" y="0" type="line"/>
			<point x="477" y="687" type="line"/>
		</contour>
		<contour>
			<point x="566" y="687" type="line"/>
			<point x="250" y="0" type="line"/>
			<point x="388" y="0" type="line"/>
			<point x="704" y="687" type="line"/>
		</contour>
		<contour>
			<point x="71" y="281" type="line"/>
			<point x="10" y="147" type="line"/>
			<point x="539" y="147" type="line"/>
			<point x="600" y="281" type="line"/>
		</contour>
		<contour>
			<point x="185" y="538" type="line"/>
			<point x="124" y="404" type="line"/>
			<point x="657" y="404" type="line"/>
			<point x="718" y="538" type="line"/>
		</contour>
	</outline>
</glyph>
<glyph name="percent" format="2">
	<advance width="903"/>
	<unicode hex="0025"/>
	<outline>
		<contour>
			<point x="709" y="687" type="line"/>
			<point x="83" y="0" type="line"/>
			<point x="230" y="0" type="line"/>
			<point x="856" y="687" type="line"/>
		</contour>
		<contour>
			<point x="635" y="-11" type="curve"/>
			<point x="635" y="-11" type="line"/>
			<point x="750" y="-11"/>
			<point x="840" y="84"/>
			<point x="840" y="195" type="curve"/>
			<point x="840" y="281"/>
			<point x="783" y="346"/>
			<point x="684" y="346" type="curve"/>
			<point x="568" y="346"/>
			<point x="477" y="251"/>
			<point x="477" y="139" type="curve"/>
			<point x="477" y="54"/>
			<point x="535" y="-11"/>
		</contour>
		<contour>
			<point x="632" y="97" type="curve"/>
			<point x="632" y="97" type="line"/>
			<point x="610" y="97"/>
			<point x="596" y="109"/>
			<point x="596" y="134" type="curve"/>
			<point x="596" y="182"/>
			<point x="633" y="238"/>
			<point x="686" y="238" type="curve"/>
			<point x="707" y="238"/>
			<point x="722" y="226"/>
			<point x="722" y="200" type="curve"/>
			<point x="722" y="154"/>
			<point x="684" y="97"/>
		</contour>
		<contour>
			<point x="253" y="338" type="curve"/>
			<point x="253" y="338" type="line"/>
			<point x="370" y="338"/>
			<point x="460" y="431"/>
			<point x="460" y="544" type="curve"/>
			<point x="460" y="629"/>
			<point x="403" y="694"/>
			<point x="302" y="694" type="curve"/>
			<point x="186" y="694"/>
			<point x="97" y="600"/>
			<point x="97" y="487" type="curve"/>
			<point x="97" y="401"/>
			<point x="156" y="338"/>
		</contour>
		<contour>
			<point x="251" y="445" type="curve"/>
			<point x="251" y="445" type="line"/>
			<point x="230" y="445"/>
			<point x="216" y="457"/>
			<point x="216" y="482" type="curve"/>
			<point x="216" y="529"/>
			<point x="253" y="586"/>
			<point x="305" y="586" type="curve"/>
			<point x="327" y="586"/>
			<point x="341" y="574"/>
			<point x="341" y="549" type="curve"/>
			<point x="341" y="502"/>
			<point x="303" y="445"/>
		</contour>
	</outline>
</glyph>
<glyph name="comma" format="2">
	<advance width="316"/>
	<unicode hex="002C"/>
	<outline>
		<contour>
			<point x="2" y="-102" type="curve"/>
			<point x="65" y="-160" type="line"/>
			<point x="155" y="-95"/>
			<point x="232" y="-6"/>
			<point x="232" y="98" type="curve"/>
			<point x="232" y="170"/>
			<point x="194" y="219"/>
			<point x="132" y="219" type="curve"/>
			<point x="69" y="219"/>
			<point x="7" y="159"/>
			<point x="7" y="90" type="curve"/>
			<point x="7" y="33"/>
			<point x="47" y="-5"/>
			<point x="98" y="-5" type="curve"/>
			<point x="76" y="-38"/>
			<point x="42" y="-75"/>
		</contour>
	</outline>
</glyph>
<glyph name="period" format="2">
	<advance width="319"/>
	<unicode hex="002E"/>
	<outline>
		<contour>
			<point x="117" y="-12" type="curve"/>
			<point x="117" y="-12" type="line"/>
			<point x="181" y="-12"/>
			<point x="242" y="46"/>
			<point x="242" y="116" type="curve"/>
			<point x="242" y="172"/>
			<point x="200" y="219"/>
			<point x="141" y="219" type="curve"/>
			<point x="74" y="219"/>
			<point x="12" y="165"/>
			<point x="12" y="93" type="curve"/>
			<point x="12" y="34"/>
			<point x="54" y="-12"/>
		</contour>
	</outline>
</glyph>
<glyph name="zero" format="2">
	<advance width="737"/>
	<unicode hex="0030"/>
	<outline>
		<contour>
			<point x="324" y="-12" type="curve"/>
			<point x="324" y="-12" type="line"/>
			<point x="549" y="-12"/>
			<point x="717" y="194"/>
			<point x="717" y="422" type="curve"/>
			<point x="717" y="588"/>
			<point x="614" y="699"/>
			<point x="447" y="699" type="curve"/>
			<point x="223" y="699"/>
			<point x="55" y="494"/>
			<point x="55" y="265" type="curve"/>
			<point x="55" y="99"/>
			<point x="158" y="-12"/>
		</contour>
		<contour>
			<point x="336" y="164" type="curve"/>
			<point x="336" y="164" type="line"/>
			<point x="283" y="164"/>
			<point x="253" y="206"/>
			<point x="253" y="273" type="curve"/>
			<point x="253" y="388"/>
			<point x="332" y="523"/>
			<point x="436" y="523" type="curve"/>
			<point x="489" y="523"/>
			<point x="519" y="481"/>
			<point x="519" y="414" type="curve"/>
			<point x="519" y="300"/>
			<point x="439" y="164"/>
		</contour>
	</outline>
</glyph>
<glyph name="three" format="2">
	<advance width="647"/>
	<unicode hex="0033"/>
	<outline>
		<contour>
			<point x="275" y="-13" type="curve"/>
			<point x="275" y="-13" type="line"/>
			<point x="438" y="-13"/>
			<point x="589" y="73"/>
			<point x="589" y="216" type="curve"/>
			<point x="589" y="289"/>
			<point x="539" y="336"/>
			<point x="479" y="350" type="curve"/>
			<point x="574" y="377"/>
			<point x="639" y="439"/>
			<point x="639" y="532" type="curve"/>
			<point x="639" y="629"/>
			<point x="554" y="699"/>
			<point x="397" y="699" type="curve"/>
			<point x="272" y="699"/>
			<point x="178" y="652"/>
			<point x="104" y="583" type="curve"/>
			<point x="194" y="453" type="line"/>
			<point x="245" y="494"/>
			<point x="302" y="526"/>
			<point x="365" y="526" type="curve"/>
			<point x="415" y="526"/>
			<point x="441" y="515"/>
			<point x="436" y="488" type="curve"/>
			<point x="428" y="450"/>
			<point x="388" y="425"/>
			<point x="324" y="425" type="curve"/>
			<point x="248" y="425" type="line"/>
			<point x="214" y="263" type="line"/>
			<point x="304" y="264" type="line" smooth="yes"/>
			<point x="377" y="265"/>
			<point x="396" y="257"/>
			<point x="396" y="237" type="curve"/>
			<point x="396" y="192"/>
			<point x="339" y="160"/>
			<point x="275" y="160" type="curve"/>
			<point x="223" y="160"/>
			<point x="164" y="177"/>
			<point x="123" y="225" type="curve"/>
			<point x="-4" y="106" type="line"/>
			<point x="48" y="38"/>
			<point x="138" y="-13"/>
		</contour>
	</outline>
</glyph>
<glyph name="four" format="2">
	<advance width="692"/>
	<unicode hex="0034"/>
	<outline>
		<contour>
			<point x="352" y="122" type="line"/>
			<point x="326" y="0" type="line"/>
			<point x="520" y="0" type="line"/>
			<point x="546" y="122" type="line"/>
			<point x="629" y="122" type="line"/>
			<point x="662" y="282" type="line"/>
			<point x="579" y="282" type="line"/>
			<point x="663" y="687" type="line"/>
			<point x="423" y="687" type="line"/>
			<point x="34" y="268" type="line"/>
			<point x="22" y="122" type="line"/>
		</contour>
		<contour>
			<point x="385" y="282" type="line"/>
			<point x="240" y="282" type="line"/>
			<point x="430" y="488" type="line"/>
		</contour>
	</outline>
</glyph>
<glyph name="six" format="2">
	<advance width="677"/>
	<unicode hex="0036"/>
	<outline>
		<contour>
			<point x="316" y="-12" type="curve"/>
			<point x="316" y="-12" type="line"/>
			<point x="489" y="-12"/>
			<point x="635" y="107"/>
			<point x="635" y="271" type="curve"/>
			<point x="635" y="384"/>
			<point x="550" y="454"/>
			<point x="432" y="454" type="curve"/>
			<point x="362" y="454"/>
			<point x="279" y="426"/>
			<point x="233" y="377" type="curve"/>
			<point x="216" y="173" type="line"/>
			<point x="233" y="242"/>
			<point x="296" y="299"/>
			<point x="363" y="299" type="curve"/>
			<point x="402" y="299"/>
			<point x="434" y="284"/>
			<point x="434" y="252" type="curve"/>
			<point x="434" y="199"/>
			<point x="376" y="152"/>
			<point x="313" y="152" type="curve"/>
			<point x="263" y="152"/>
			<point x="244" y="169"/>
			<point x="244" y="214" type="curve"/>
			<point x="244" y="362"/>
			<point x="320" y="530"/>
			<point x="459" y="530" type="curve"/>
			<point x="505" y="530"/>
			<point x="539" y="518"/>
			<point x="574" y="488" type="curve"/>
			<point x="683" y="626" type="line"/>
			<point x="629" y="669"/>
			<point x="561" y="699"/>
			<point x="467" y="699" type="curve"/>
			<point x="221" y="699"/>
			<point x="53" y="491"/>
			<point x="53" y="240" type="curve"/>
			<point x="53" y="88"/>
			<point x="138" y="-12"/>
		</contour>
	</outline>
</glyph>
<glyph name="eight" format="2">
	<advance width="675"/>
	<unicode hex="0038"/>
	<outline>
		<contour>
			<point x="293" y="-12" type="curve"/>
			<point x="293" y="-12" type="line"/>
			<point x="457" y="-12"/>
			<point x="616" y="60"/>
			<point x="616" y="210" type="curve"/>
			<point x="616" y="273"/>
			<point x="581" y="322"/>
			<point x="525" y="349" type="curve"/>
			<point x="610" y="386"/>
			<point x="665" y="442"/>
			<point x="665" y="531" type="curve"/>
			<point x="665" y="637"/>
			<point x="555" y="699"/>
			<point x="416" y="699" type="curve"/>
			<point x="268" y="699"/>
			<point x="114" y="630"/>
			<point x="114" y="486" type="curve"/>
			<point x="114" y="423"/>
			<point x="148" y="383"/>
			<point x="190" y="361" type="curve"/>
			<point x="98" y="325"/>
			<point x="29" y="261"/>
			<point x="29" y="164" type="curve"/>
			<point x="29" y="51"/>
			<point x="144" y="-12"/>
		</contour>
		<contour>
			<point x="302" y="148" type="curve"/>
			<point x="302" y="148" type="line"/>
			<point x="255" y="148"/>
			<point x="227" y="161"/>
			<point x="227" y="185" type="curve"/>
			<point x="227" y="232"/>
			<point x="293" y="269"/>
			<point x="352" y="272" type="curve"/>
			<point x="393" y="270"/>
			<point x="428" y="256"/>
			<point x="428" y="232" type="curve"/>
			<point x="428" y="185"/>
			<point x="364" y="148"/>
		</contour>
		<contour>
			<point x="358" y="420" type="curve"/>
			<point x="358" y="420" type="line"/>
			<point x="323" y="422"/>
			<point x="297" y="436"/>
			<point x="297" y="459" type="curve"/>
			<point x="297" y="502"/>
			<point x="351" y="540"/>
			<point x="408" y="540" type="curve"/>
			<point x="449" y="540"/>
			<point x="472" y="526"/>
			<point x="472" y="505" type="curve"/>
			<point x="472" y="463"/>
			<point x="413" y="423"/>
		</contour>
	</outline>
</glyph>
<glyph name="colon" format="2">
	<advance width="333"/>
	<unicode hex="003A"/>
	<outline>
		<contour>
			<point x="192" y="313" type="curve"/>
			<point x="192" y="313" type="line"/>
			<point x="256" y="313"/>
			<point x="317" y="371"/>
			<point x="317" y="440" type="curve"/>
			<point x="317" y="497"/>
			<point x="275" y="544"/>
			<point x="215" y="544" type="curve"/>
			<point x="149" y="544"/>
			<point x="86" y="490"/>
			<point x="86" y="419" type="curve"/>
			<point x="86" y="359"/>
			<point x="128" y="313"/>
		</contour>
		<contour>
			<point x="124" y="-12" type="curve"/>
			<point x="124" y="-12" type="line"/>
			<point x="188" y="-12"/>
			<point x="249" y="46"/>
			<point x="249" y="116" type="curve"/>
			<point x="249" y="172"/>
			<point x="207" y="219"/>
			<point x="148" y="219" type="curve"/>
			<point x="81" y="219"/>
			<point x="19" y="165"/>
			<point x="19" y="93" type="curve"/>
			<point x="19" y="34"/>
			<point x="61" y="-12"/>
		</contour>
	</outline>
</glyph>
<glyph name="B" format="2">
	<advance width="715"/>
	<unicode hex="0042"/>
	<outline>
		<contour>
			<point x="155" y="687" type="line"/>
			<point x="12" y="0" type="line"/>
			<point x="403" y="0" type="line" smooth="yes"/>
			<point x="547" y="0"/>
			<point x="676" y="76"/>
			<point x="676" y="209" type="curve"/>
			<point x="676" y="274"/>
			<point x="640" y="328"/>
			<point x="583" y="354" type="curve"/>
			<point x="660" y="388"/>
			<point x="712" y="455"/>
			<point x="712" y="534" type="curve"/>
			<point x="712" y="623"/>
			<point x="635" y="687"/>
			<point x="519" y="687" type="curve"/>
		</contour>
		<contour>
			<point x="392" y="163" type="curve"/>
			<point x="239" y="163" type="line"/>
			<point x="262" y="273" type="line"/>
			<point x="427" y="273" type="line" smooth="yes"/>
			<point x="469" y="273"/>
			<point x="486" y="263"/>
			<point x="486" y="239" type="curve"/>
			<point x="486" y="194"/>
			<point x="447" y="163"/>
		</contour>
		<contour>
			<point x="417" y="420" type="curve"/>
			<point x="293" y="420" type="line"/>
			<point x="314" y="524" type="line"/>
			<point x="451" y="524" type="line" smooth="yes"/>
			<point x="490" y="524"/>
			<point x="506" y="515"/>
			<point x="507" y="493" type="curve"/>
			<point x="507" y="450"/>
			<point x="470" y="420"/>
		</contour>
	</outline>
</glyph>
<glyph name="C" format="2">
	<advance width="693"/>
	<unicode hex="0043"/>
	<anchor x="480" y="687" name="top"/>
	<anchor x="340" y="0" name="bottom"/>
	<outline>
		<contour>
			<point x="352" y="-12" type="curve"/>
			<point x="352" y="-12" type="line"/>
			<point x="453" y="-12"/>
			<point x="574" y="36"/>
			<point x="650" y="104" type="curve"/>
			<point x="527" y="240" type="line"/>
			<point x="485" y="195"/>
			<point x="418" y="164"/>
			<point x="367" y="164" type="curve"/>
			<point x="301" y="164"/>
			<point x="236" y="215"/>
			<point x="236" y="302" type="curve"/>
			<point x="236" y="414"/>
			<point x="345" y="523"/>
			<point x="460" y="523" type="curve"/>
			<point x="517" y="523"/>
			<point x="559" y="496"/>
			<point x="581" y="459" type="curve"/>
			<point x="741" y="573" type="line"/>
			<point x="686" y="645"/>
			<point x="587" y="699"/>
			<point x="469" y="699" type="curve"/>
			<point x="246" y="699"/>
			<point x="39" y="508"/>
			<point x="39" y="298" type="curve"/>
			<point x="39" y="123"/>
			<point x="182" y="-12"/>
		</contour>
	</outline>
</glyph>
<glyph name="D" format="2">
	<advance width="755"/>
	<unicode hex="0044"/>
	<anchor x="405" y="687" name="top"/>
	<outline>
		<contour>
			<point x="155" y="687" type="line"/>
			<point x="12" y="0" type="line"/>
			<point x="275" y="0" type="line" smooth="yes"/>
			<point x="536" y="0"/>
			<point x="755" y="183"/>
			<point x="755" y="400" type="curve"/>
			<point x="755" y="568"/>
			<point x="610" y="687"/>
			<point x="405" y="687" type="curve"/>
		</contour>
		<contour>
			<point x="331" y="176" type="curve"/>
			<point x="243" y="176" type="line"/>
			<point x="313" y="511" type="line"/>
			<point x="413" y="511" type="line" smooth="yes"/>
			<point x="497" y="511"/>
			<point x="557" y="462"/>
			<point x="557" y="393" type="curve"/>
			<point x="557" y="275"/>
			<point x="454" y="176"/>
		</contour>
	</outline>
</glyph>
<glyph name="G" format="2">
	<advance width="728"/>
	<unicode hex="0047"/>
	<anchor x="484" y="687" name="top"/>
	<anchor x="354" y="0" name="bottom"/>
	<outline>
		<contour>
			<point x="359" y="-12" type="curve"/>
			<point x="359" y="-12" type="line"/>
			<point x="461" y="-12"/>
			<point x="572" y="27"/>
			<point x="659" y="104" type="curve"/>
			<point x="536" y="240" type="line"/>
			<point x="493" y="196"/>
			<point x="432" y="164"/>
			<point x="371" y="164" type="curve"/>
			<point x="291" y="164"/>
			<point x="235" y="221"/>
			<point x="235" y="296" type="curve"/>
			<point x="235" y="405"/>
			<point x="352" y="523"/>
			<point x="471" y="523" type="curve"/>
			<point x="519" y="523"/>
			<point x="565" y="503"/>
			<point x="590" y="459" type="curve"/>
			<point x="750" y="573" type="line"/>
			<point x="693" y="649"/>
			<point x="597" y="699"/>
			<point x="482" y="699" type="curve"/>
			<point x="263" y="699"/>
			<point x="38" y="511"/>
			<point x="38" y="290" type="curve"/>
			<point x="38" y="121"/>
			<point x="172" y="-12"/>
		</contour>
		<contour>
			<point x="506" y="282" type="line"/>
			<point x="471" y="104" type="line"/>
			<point x="659" y="104" type="line"/>
			<point x="720" y="396" type="line"/>
			<point x="398" y="396" type="line"/>
			<point x="368" y="253" type="line"/>
			<point x="529" y="253" type="line"/>
		</contour>
	</outline>
</glyph>
<glyph name="H" format="2">
	<advance width="771"/>
	<unicode hex="0048"/>
	<outline>
		<contour>
			<point x="155" y="687" type="line"/>
			<point x="12" y="0" type="line"/>
			<point x="206" y="0" type="line"/>
			<point x="270" y="315" type="line"/>
			<point x="212" y="264" type="line"/>
			<point x="556" y="264" type="line"/>
			<point x="521" y="315" type="line"/>
			<point x="458" y="0" type="line"/>
			<point x="651" y="0" type="line"/>
			<point x="794" y="687" type="line"/>
			<point x="600" y="687" type="line"/>
			<point x="540" y="385" type="line"/>
			<point x="599" y="437" type="line"/>
			<point x="253" y="437" type="line"/>
			<point x="289" y="385" type="line"/>
			<point x="349" y="687" type="line"/>
		</contour>
	</outline>
</glyph>
<glyph name="L" format="2">
	<advance width="600"/>
	<unicode hex="004C"/>
	<anchor x="248" y="687" name="top"/>
	<outline>
		<contour>
			<point x="155" y="687" type="line"/>
			<point x="12" y="0" type="line"/>
			<point x="526" y="0" type="line"/>
			<point x="562" y="173" type="line"/>
			<point x="188" y="173" type="line"/>
			<point x="233" y="117" type="line"/>
			<point x="349" y="687" type="line"/>
		</contour>
	</outline>
</glyph>
<glyph name="N" format="2">
	<advance width="788"/>
	<unicode hex="004E"/>
	<anchor x="482" y="687" name="top"/>
	<anchor x="341" y="0" name="bottom"/>
	<outline>
		<contour>
			<point x="155" y="687" type="line"/>
			<point x="12" y="0" type="line"/>
			<point x="206" y="0" type="line"/>
			<point x="285" y="368" type="line"/>
			<point x="477" y="0" type="line"/>
			<point x="668" y="0" type="line"/>
			<point x="811" y="687" type="line"/>
			<point x="617" y="687" type="line"/>
			<point x="538" y="319" type="line"/>
			<point x="347" y="687" type="line"/>
		</contour>
	</outline>
</glyph>
<glyph name="S" format="2">
	<advance width="650"/>
	<unicode hex="0053"/>
	<anchor x="417" y="687" name="top"/>
	<anchor x="277" y="0" name="bottom"/>
	<outline>
		<contour>
			<point x="293" y="-12" type="curve"/>
			<point x="293" y="-12" type="line"/>
			<point x="475" y="-12"/>
			<point x="619" y="87"/>
			<point x="619" y="240" type="curve"/>
			<point x="619" y="349"/>
			<point x="547" y="387"/>
			<point x="387" y="424" type="curve"/>
			<point x="312" y="441"/>
			<point x="288" y="446"/>
			<point x="288" y="471" type="curve"/>
			<point x="288" y="500"/>
			<point x="321" y="538"/>
			<point x="388" y="538" type="curve"/>
			<point x="432" y="538"/>
			<point x="502" y="522"/>
			<point x="559" y="473" type="curve"/>
			<point x="675" y="601" type="line"/>
			<point x="606" y="666"/>
			<point x="510" y="699"/>
			<point x="406" y="699" type="curve"/>
			<point x="216" y="699"/>
			<point x="90" y="589"/>
			<point x="90" y="448" type="curve"/>
			<point x="90" y="320"/>
			<point x="193" y="293"/>
			<point x="324" y="260" type="curve"/>
			<point x="403" y="240"/>
			<point x="422" y="238"/>
			<point x="422" y="216" type="curve"/>
			<point x="422" y="186"/>
			<point x="385" y="149"/>
			<point x="307" y="149" type="curve"/>
			<point x="244" y="149"/>
			<point x="169" y="173"/>
			<point x="111" y="228" type="curve"/>
			<point x="-15" y="109" type="line"/>
			<point x="56" y="34"/>
			<point x="169" y="-12"/>
		</contour>
	</outline>
</glyph>
<glyph name="T" format="2">
	<advance width="640"/>
	<unicode hex="0054"/>
	<anchor x="409" y="687" name="top"/>
	<anchor x="260" y="0" name="bottom"/>
	<outline>
		<contour>
			<point x="276" y="514" type="line"/>
			<point x="169" y="0" type="line"/>
			<point x="363" y="0" type="line"/>
			<point x="470" y="514" type="line"/>
			<point x="673" y="514" type="line"/>
			<point x="709" y="687" type="line"/>
			<point x="109" y="687" type="line"/>
			<point x="73" y="514" type="line"/>
		</contour>
	</outline>
</glyph>
<glyph name="W" format="2">
	<advance width="1088"/>
	<unicode hex="0057"/>
	<anchor x="631" y="687" name="top"/>
	<outline>
		<contour>
			<point x="103" y="687" type="line"/>
			<point x="151" y="0" type="line"/>
			<point x="347" y="0" type="line"/>
			<point x="576" y="397" type="line"/>
			<point x="634" y="0" type="line"/>
			<point x="830" y="0" type="line"/>
			<point x="1163" y="687" type="line"/>
			<point x="951" y="687" type="line"/>
			<point x="783" y="290" type="line"/>
			<point x="735" y="687" type="line"/>
			<point x="526" y="687" type="line"/>
			<point x="309" y="290" type="line"/>
			<point x="309" y="687" type="line"/>
		</contour>
	</outline>
</glyph>
<glyph name="X" format="2">
	<advance width="754"/>
	<unicode hex="0058"/>
	<outline>
		<contour>
			<point x="675" y="0" type="line"/>
			<point x="457" y="0" type="line"/>
			<point x="114" y="687" type="line"/>
			<point x="332" y="687" type="line"/>
		</contour>
		<contour>
			<point x="198" y="0" type="line"/>
			<point x="-42" y="0" type="line"/>
			<point x="591" y="687" type="line"/>
			<point x="831" y="687" type="line"/>
		</contour>
	</outline>
</glyph>
<glyph name="Y" format="2">
	<advance width="735"/>
	<unicode hex="0059"/>
	<anchor x="438" y="687" name="top"/>
	<outline>
		<contour>
			<point x="264" y="226" type="line"/>
			<point x="214" y="0" type="line"/>
			<point x="408" y="0" type="line"/>
			<point x="458" y="226" type="line"/>
			<point x="817" y="687" type="line"/>
			<point x="599" y="687" type="line"/>
			<point x="382" y="394" type="line"/>
			<point x="276" y="687" type="line"/>
			<point x="96" y="687" type="line"/>
		</contour>
	</outline>
</glyph>
<glyph name="backslash" format="2">
	<advance width="538"/>
	<unicode hex="005C"/>
	<outline>
		<contour>
			<point x="102" y="743" type="line"/>
			<point x="272" y="-74" type="line"/>
			<point x="468" y="-74" type="line"/>
			<point x="298" y="743" type="line"/>
		</contour>
	</outline>
</glyph>
<glyph name="b" format="2">
	<advance width="682"/>
	<unicode hex="0062"/>
	<outline>
		<contour>
			<point x="378" y="-12" type="curve"/>
			<point x="378" y="-12" type="line"/>
			<point x="544" y="-12"/>
			<point x="664" y="147"/>
			<point x="664" y="318" type="curve"/>
			<point x="664" y="444"/>
			<point x="588" y="529"/>
			<point x="466" y="529" type="curve"/>
			<point x="303" y="529"/>
			<point x="184" y="368"/>
			<point x="184" y="199" type="curve"/>
			<point x="184" y="73"/>
			<point x="258" y="-12"/>
		</contour>
		<contour>
			<point x="326" y="148" type="curve"/>
			<point x="326" y="148" type="line"/>
			<point x="279" y="148"/>
			<point x="251" y="175"/>
			<point x="251" y="219" type="curve"/>
			<point x="251" y="292"/>
			<point x="317" y="369"/>
			<point x="397" y="369" type="curve"/>
			<point x="449" y="369"/>
			<point x="480" y="341"/>
			<point x="480" y="296" type="curve"/>
			<point x="480" y="221"/>
			<point x="409" y="148"/>
		</contour>
		<contour>
			<point x="155" y="699" type="line"/>
			<point x="10" y="0" type="line"/>
			<point x="203" y="0" type="line"/>
			<point x="348" y="699" type="line"/>
		</contour>
	</outline>
</glyph>
<glyph name="c" format="2">
	<advance width="540"/>
	<unicode hex="0063"/>
	<anchor x="340" y="517" name="top"/>
	<anchor x="247" y="0" name="bottom"/>
	<outline>
		<contour>
			<point x="264" y="-12" type="curve"/>
			<point x="264" y="-12" type="line"/>
			<point x="354" y="-12"/>
			<point x="432" y="21"/>
			<point x="496" y="81" type="curve"/>
			<point x="383" y="195" type="line"/>
			<point x="359" y="171"/>
			<point x="314" y="148"/>
			<point x="275" y="148" type="curve"/>
			<point x="229" y="148"/>
			<point x="197" y="181"/>
			<point x="197" y="225" type="curve"/>
			<point x="197" y="293"/>
			<point x="270" y="369"/>
			<point x="345" y="369" type="curve"/>
			<point x="371" y="369"/>
			<point x="404" y="358"/>
			<point x="419" y="335" type="curve"/>
			<point x="559" y="427" type="line"/>
			<point x="519" y="485"/>
			<point x="453" y="529"/>
			<point x="355" y="529" type="curve"/>
			<point x="188" y="529"/>
			<point x="16" y="391"/>
			<point x="16" y="222" type="curve"/>
			<point x="16" y="91"/>
			<point x="120" y="-12"/>
		</contour>
	</outline>
</glyph>
<glyph name="g" format="2">
	<advance width="659"/>
	<unicode hex="0067"/>
	<anchor x="386" y="517" name="top"/>
	<anchor x="229" y="-172" name="bottom"/>
	<outline>
		<contour>
			<point x="654" y="517" type="line"/>
			<point x="460" y="517" type="line"/>
			<point x="368" y="73" type="line" smooth="yes"/>
			<point x="358" y="28"/>
			<point x="289" y="-12"/>
			<point x="204" y="-12" type="curve"/>
			<point x="157" y="-12"/>
			<point x="100" y="0"/>
			<point x="75" y="25" type="curve"/>
			<point x="-6" y="-99" type="line"/>
			<point x="43" y="-139"/>
			<point x="127" y="-172"/>
			<point x="229" y="-172" type="curve"/>
			<point x="393" y="-172"/>
			<point x="528" y="-88"/>
			<point x="556" y="47" type="curve"/>
		</contour>
		<contour>
			<point x="287" y="198" type="curve"/>
			<point x="287" y="198" type="line"/>
			<point x="249" y="198"/>
			<point x="221" y="216"/>
			<point x="221" y="256" type="curve"/>
			<point x="221" y="316"/>
			<point x="284" y="369"/>
			<point x="350" y="369" type="curve"/>
			<point x="391" y="369"/>
			<point x="416" y="349"/>
			<point x="416" y="312" type="curve"/>
			<point x="416" y="252"/>
			<point x="352" y="198"/>
		</contour>
		<contour>
			<point x="401" y="123" type="curve"/>
			<point x="401" y="123" type="line"/>
			<point x="453" y="432" type="line"/>
			<point x="439" y="483"/>
			<point x="369" y="529"/>
			<point x="287" y="529" type="curve"/>
			<point x="140" y="529"/>
			<point x="24" y="385"/>
			<point x="24" y="238" type="curve"/>
			<point x="24" y="120"/>
			<point x="99" y="38"/>
			<point x="212" y="38" type="curve"/>
			<point x="277" y="38"/>
			<point x="349" y="66"/>
		</contour>
	</outline>
</glyph>
<glyph name="m" format="2">
	<advance width="952"/>
	<unicode hex="006D"/>
	<anchor x="207" y="517" name="top"/>
	<anchor x="195" y="0" name="bottom"/>
	<outline>
		<contour>
			<point x="110" y="517" type="line"/>
			<point x="2" y="0" type="line"/>
			<point x="195" y="0" type="line"/>
			<point x="303" y="517" type="line"/>
		</contour>
		<contour>
			<point x="341" y="0" type="curve"/>
			<point x="341" y="0" type="line"/>
			<point x="525" y="0" type="line"/>
			<point x="591" y="318"/>
			<point x="597" y="337"/>
			<point x="597" y="365" type="curve"/>
			<point x="597" y="461"/>
			<point x="525" y="530"/>
			<point x="428" y="530" type="curve"/>
			<point x="343" y="530"/>
			<point x="276" y="476"/>
			<point x="258" y="388" type="curve"/>
			<point x="256" y="293" type="line"/>
			<point x="263" y="331"/>
			<point x="307" y="370"/>
			<point x="358" y="370" type="curve"/>
			<point x="398" y="370"/>
			<point x="404" y="345"/>
			<point x="406" y="323" type="curve"/>
			<point x="407" y="312"/>
			<point x="388" y="227"/>
		</contour>
		<contour>
			<point x="671" y="0" type="curve"/>
			<point x="671" y="0" type="line"/>
			<point x="855" y="0" type="line"/>
			<point x="921" y="318"/>
			<point x="927" y="337"/>
			<point x="927" y="365" type="curve"/>
			<point x="927" y="461"/>
			<point x="855" y="530"/>
			<point x="758" y="530" type="curve"/>
			<point x="673" y="530"/>
			<point x="606" y="476"/>
			<point x="588" y="388" type="curve"/>
			<point x="586" y="293" type="line"/>
			<point x="593" y="331"/>
			<point x="637" y="370"/>
			<point x="688" y="370" type="curve"/>
			<point x="728" y="370"/>
			<point x="734" y="345"/>
			<point x="736" y="323" type="curve"/>
			<point x="737" y="312"/>
			<point x="718" y="227"/>
		</contour>
	</outline>
</glyph>
<glyph name="p" format="2">
	<advance width="683"/>
	<unicode hex="0070"/>
	<outline>
		<contour>
			<point x="118" y="517" type="line"/>
			<point x="-25" y="-172" type="line"/>
			<point x="168" y="-172" type="line"/>
			<point x="311" y="517" type="line"/>
		</contour>
		<contour>
			<point x="379" y="-12" type="curve"/>
			<point x="379" y="-12" type="line"/>
			<point x="545" y="-12"/>
			<point x="665" y="147"/>
			<point x="665" y="318" type="curve"/>
			<point x="665" y="444"/>
			<point x="589" y="529"/>
			<point x="467" y="529" type="curve"/>
			<point x="304" y="529"/>
			<point x="185" y="368"/>
			<point x="185" y="199" type="curve"/>
			<point x="185" y="73"/>
			<point x="259" y="-12"/>
		</contour>
		<contour>
			<point x="327" y="148" type="curve"/>
			<point x="327" y="148" type="line"/>
			<point x="280" y="148"/>
			<point x="252" y="175"/>
			<point x="252" y="219" type="curve"/>
			<point x="252" y="292"/>
			<point x="318" y="369"/>
			<point x="398" y="369" type="curve"/>
			<point x="450" y="369"/>
			<point x="481" y="341"/>
			<point x="481" y="296" type="curve"/>
			<point x="481" y="221"/>
			<point x="410" y="148"/>
		</contour>
	</outline>
</glyph>
<glyph name="r" format="2">
	<advance width="431"/>
	<unicode hex="0072"/>
	<anchor x="280" y="517" name="top"/>
	<anchor x="175" y="0" name="bottom"/>
	<outline>
		<contour>
			<point x="110" y="517" type="line"/>
			<point x="2" y="0" type="line"/>
			<point x="195" y="0" type="line"/>
			<point x="303" y="517" type="line"/>
		</contour>
		<contour>
			<point x="222" y="287" type="curve"/>
			<point x="239" y="211" type="line"/>
			<point x="259" y="305"/>
			<point x="338" y="369"/>
			<point x="440" y="369" type="curve"/>
			<point x="461" y="529" type="line"/>
			<point x="347" y="529"/>
			<point x="252" y="433"/>
		</contour>
	</outline>
</glyph>
<glyph name="s" format="2">
	<advance width="506"/>
	<unicode hex="0073"/>
	<anchor x="310" y="517" name="top"/>
	<anchor x="202" y="0" name="bottom"/>
	<outline>
		<contour>
			<point x="216" y="-12" type="curve"/>
			<point x="216" y="-12" type="line"/>
			<point x="356" y="-12"/>
			<point x="466" y="61"/>
			<point x="466" y="181" type="curve"/>
			<point x="466" y="288"/>
			<point x="377" y="309"/>
			<point x="287" y="330" type="curve"/>
			<point x="235" y="342"/>
			<point x="228" y="347"/>
			<point x="228" y="356" type="curve"/>
			<point x="228" y="375"/>
			<point x="259" y="398"/>
			<point x="298" y="398" type="curve"/>
			<point x="336" y="398"/>
			<point x="391" y="375"/>
			<point x="428" y="347" type="curve"/>
			<point x="508" y="457" type="line"/>
			<point x="454" y="496"/>
			<point x="383" y="529"/>
			<point x="298" y="529" type="curve"/>
			<point x="165" y="529"/>
			<point x="56" y="449"/>
			<point x="56" y="332" type="curve"/>
			<point x="56" y="230"/>
			<point x="138" y="211"/>
			<point x="234" y="189" type="curve"/>
			<point x="291" y="176"/>
			<point x="294" y="169"/>
			<point x="294" y="162" type="curve"/>
			<point x="294" y="140"/>
			<point x="268" y="122"/>
			<point x="224" y="122" type="curve"/>
			<point x="176" y="122"/>
			<point x="107" y="144"/>
			<point x="65" y="179" type="curve"/>
			<point x="-22" y="71" type="line"/>
			<point x="33" y="22"/>
			<point x="120" y="-12"/>
		</contour>
	</outline>
</glyph>
<glyph name="u" format="2">
	<advance width="624"/>
	<unicode hex="0075"/>
	<anchor x="355" y="517" name="top"/>
	<anchor x="520" y="0" name="bottom"/>
	<outline>
		<contour>
			<point x="515" y="0" type="line"/>
			<point x="623" y="517" type="line"/>
			<point x="430" y="517" type="line"/>
			<point x="322" y="0" type="line"/>
		</contour>
		<contour>
			<point x="281" y="517" type="curve"/>
			<point x="281" y="517" type="line"/>
			<point x="97" y="517" type="line"/>
			<point x="33" y="212"/>
			<point x="25" y="186"/>
			<point x="25" y="148" type="curve"/>
			<point x="25" y="55"/>
			<point x="88" y="-12"/>
			<point x="189" y="-12" type="curve"/>
			<point x="282" y="-12"/>
			<point x="361" y="42"/>
			<point x="384" y="130" type="curve"/>
			<point x="372" y="235" type="line"/>
			<point x="364" y="189"/>
			<point x="319" y="148"/>
			<point x="269" y="148" type="curve"/>
			<point x="237" y="148"/>
			<point x="217" y="166"/>
			<point x="217" y="200" type="curve"/>
			<point x="217" y="215"/>
			<point x="220" y="228"/>
		</contour>
	</outline>
</glyph>
<glyph name="v" format="2">
	<advance width="637"/>
	<unicode hex="0076"/>
	<outline>
		<contour>
			<point x="59" y="517" type="line"/>
			<point x="178" y="0" type="line"/>
			<point x="356" y="0" type="line"/>
			<point x="686" y="517" type="line"/>
			<point x="484" y="517" type="line"/>
			<point x="307" y="221" type="line"/>
			<point x="253" y="517" type="line"/>
		</contour>
	</outline>
</glyph>
<glyph name="x" format="2">
	<advance width="588"/>
	<unicode hex="0078"/>
	<outline>
		<contour>
			<point x="75" y="517" type="line"/>
			<point x="325" y="0" type="line"/>
			<point x="524" y="0" type="line"/>
			<point x="275" y="517" type="line"/>
		</contour>
		<contour>
			<point x="423" y="517" type="line"/>
			<point x="-46" y="0" type="line"/>
			<point x="158" y="0" type="line"/>
			<point x="626" y="517" type="line"/>
		</contour>
	</outline>
</glyph>
<glyph name="y" format="2">
	<advance width="614"/>
	<unicode hex="0079"/>
	<anchor x="363" y="517" name="top"/>
	<outline>
		<contour>
			<point x="121" y="-180" type="curve"/>
			<point x="121" y="-180" type="line"/>
			<point x="207" y="-180"/>
			<point x="291" y="-123"/>
			<point x="356" y="-11" type="curve"/>
			<point x="661" y="517" type="line"/>
			<point x="463" y="517" type="line"/>
			<point x="295" y="198" type="line"/>
			<point x="257" y="517" type="line"/>
			<point x="64" y="517" type="line"/>
			<point x="162" y="-7" type="line"/>
			<point x="145" y="-20" type="line"/>
			<point x="140" y="-29"/>
			<point x="106" y="-43"/>
			<point x="85" y="-43" type="curve"/>
			<point x="68" y="-43"/>
			<point x="44" y="-34"/>
			<point x="19" y="-18" type="curve"/>
			<point x="-35" y="-134" type="line"/>
			<point x="4" y="-159"/>
			<point x="69" y="-180"/>
		</contour>
	</outline>
</glyph>
<glyph name="z" format="2">
	<advance width="558"/>
	<unicode hex="007A"/>
	<anchor x="338" y="517" name="top"/>
	<outline>
		<contour>
			<point x="10" y="133" type="line"/>
			<point x="-15" y="0" type="line"/>
			<point x="465" y="0" type="line"/>
			<point x="499" y="160" type="line"/>
			<point x="269" y="160" type="line"/>
			<point x="544" y="384" type="line"/>
			<point x="571" y="517" type="line"/>
			<point x="99" y="517" type="line"/>
			<point x="66" y="357" type="line"/>
			<point x="286" y="357" type="line"/>
		</contour>
	</outline>
</glyph>
<glyph name="bar" format="2">
	<advance width="321"/>
	<unicode hex="007C"/>
	<outline>
		<contour>
			<point x="197" y="743" type="line"/>
			<point x="27" y="-74" type="line"/>
			<point x="156" y="-74" type="line"/>
			<point x="326" y="743" type="line"/>
		</contour>
	</outline>
</glyph>
<glyph name="sterling" format="2">
	<advance width="735"/>
	<unicode hex="00A3"/>
	<outline>
		<contour>
			<point x="21" y="76" type="line"/>
			<point x="7" y="0" type="line"/>
			<point x="620" y="0" type="line"/>
			<point x="650" y="143" type="line"/>
			<point x="275" y="143" type="line"/>
			<point x="321" y="87" type="line"/>
			<point x="391" y="435" type="line" smooth="yes"/>
			<point x="401" y="482"/>
			<point x="449" y="523"/>
			<point x="503" y="523" type="curve"/>
			<point x="531" y="523"/>
			<point x="562" y="505"/>
			<point x="574" y="470" type="curve"/>
			<point x="717" y="579" type="line"/>
			<point x="680" y="646"/>
			<point x="588" y="699"/>
			<point x="488" y="699" type="curve"/>
			<point x="349" y="699"/>
			<point x="233" y="609"/>
			<point x="204" y="471" type="curve"/>
			<point x="135" y="143" type="line"/>
		</contour>
		<contour>
			<point x="103" y="337" type="line"/>
			<point x="84" y="250" type="line"/>
			<point x="489" y="250" type="line"/>
			<point x="508" y="337" type="line"/>
		</contour>
	</outline>
</glyph>
<glyph name="yen" format="2">
	<advance width="815"/>
	<unicode hex="00A5"/>
	<anchor x="478" y="687" name="top"/>
	<outline>
		<contour>
			<point x="150" y="177" type="line"/>
			<point x="132" y="90" type="line"/>
			<point x="628" y="90" type="line"/>
			<point x="646" y="177" type="line"/>
		</contour>
		<contour>
			<point x="179" y="317" type="line"/>
			<point x="161" y="230" type="line"/>
			<point x="657" y="230" type="line"/>
			<point x="675" y="317" type="line"/>
		</contour>
		<contour>
			<point x="304" y="226" type="line"/>
			<point x="254" y="0" type="line"/>
			<point x="448" y="0" type="line"/>
			<point x="498" y="226" type="line"/>
			<point x="857" y="687" type="line"/>
			<point x="639" y="687" type="line"/>
			<point x="422" y="394" type="line"/>
			<point x="316" y="687" type="line"/>
			<point x="136" y="687" type="line"/>
		</contour>
	</outline>
</glyph>
<glyph name="dieresis" format="2">
	<advance width="440"/>
	<unicode hex="00A8"/>
	<anchor x="313" y="704" name="top"/>
	<anchor x="274" y="517" name="_top"/>
	<outline>
		<contour>
			<point x="187" y="575" type="curve"/>
			<point x="187" y="575" type="line"/>
			<point x="233" y="575"/>
			<point x="277" y="614"/>
			<point x="277" y="666" type="curve"/>
			<point x="277" y="711"/>
			<point x="244" y="748"/>
			<point x="198" y="748" type="curve"/>
			<point x="150" y="748"/>
			<point x="106" y="710"/>
			<point x="106" y="656" type="curve"/>
			<point x="106" y="611"/>
			<point x="137" y="575"/>
		</contour>
		<contour>
			<point x="412" y="575" type="curve"/>
			<point x="412" y="575" type="line"/>
			<point x="458" y="575"/>
			<point x="502" y="614"/>
			<point x="502" y="667" type="curve"/>
			<point x="502" y="711"/>
			<point x="470" y="748"/>
			<point x="423" y="748" type="curve"/>
			<point x="376" y="748"/>
			<point x="331" y="710"/>
			<point x="331" y="657" type="curve"/>
			<point x="331" y="611"/>
			<point x="363" y="575"/>
		</contour>
	</outline>
</glyph>
<glyph name="macron" format="2">
	<advance width="443"/>
	<unicode hex="00AF"/>
	<anchor x="314" y="704" name="top"/>
	<anchor x="275" y="517" name="_top"/>
	<outline>
		<contour>
			<point x="124" y="679" type="line"/>
			<point x="102" y="573" type="line"/>
			<point x="471" y="573" type="line"/>
			<point x="493" y="679" type="line"/>
		</contour>
	</outline>
</glyph>
<glyph name="periodcentered" format="2">
	<advance width="294"/>
	<unicode hex="00B7"/>
	<outline>
		<contour>
			<point x="143" y="177" type="curve"/>
			<point x="143" y="177" type="line"/>
			<point x="203" y="177"/>
			<point x="253" y="229"/>
			<point x="253" y="288" type="curve"/>
			<point x="253" y="340"/>
			<point x="214" y="381"/>
			<point x="160" y="381" type="curve"/>
			<point x="100" y="381"/>
			<point x="50" y="330"/>
			<point x="50" y="269" type="curve"/>
			<point x="50" y="217"/>
			<point x="88" y="177"/>
		</contour>
	</outline>
</glyph>
<glyph name="AE" format="2">
	<advance width="1065"/>
	<unicode hex="00C6"/>
	<anchor x="686" y="0" name="bottom"/>
	<outline>
		<contour>
			<point x="493" y="687" type="line"/>
			<point x="-47" y="0" type="line"/>
			<point x="181" y="0" type="line"/>
			<point x="253" y="92" type="line"/>
			<point x="424" y="92" type="line"/>
			<point x="405" y="0" type="line"/>
			<point x="958" y="0" type="line"/>
			<point x="994" y="173" type="line"/>
			<point x="636" y="173" type="line"/>
			<point x="654" y="264" type="line"/>
			<point x="981" y="264" type="line"/>
			<point x="1017" y="437" type="line"/>
			<point x="691" y="437" type="line"/>
			<point x="706" y="514" type="line"/>
			<point x="1065" y="514" type="line"/>
			<point x="1101" y="687" type="line"/>
		</contour>
		<contour>
			<point x="454" y="235" type="line"/>
			<point x="366" y="235" type="line"/>
			<point x="486" y="388" type="line"/>
		</contour>
	</outline>
</glyph>
<glyph name="Eth" format="2">
	<advance width="794"/>
	<unicode hex="00D0"/>
	<outline>
		<contour>
			<point x="56" y="431" type="line"/>
			<point x="20" y="258" type="line"/>
			<point x="418" y="258" type="line"/>
			<point x="455" y="431" type="line"/>
		</contour>
		<contour>
			<point x="194" y="687" type="line"/>
			<point x="51" y="0" type="line"/>
			<point x="314" y="0" type="line" smooth="yes"/>
			<point x="575" y="0"/>
			<point x="794" y="183"/>
			<point x="794" y="400" type="curve"/>
			<point x="794" y="568"/>
			<point x="649" y="687"/>
			<point x="444" y="687" type="curve"/>
		</contour>
		<contour>
			<point x="370" y="176" type="curve"/>
			<point x="282" y="176" type="line"/>
			<point x="352" y="511" type="line"/>
			<point x="452" y="511" type="line" smooth="yes"/>
			<point x="536" y="511"/>
			<point x="596" y="462"/>
			<point x="596" y="393" type="curve"/>
			<point x="596" y="275"/>
			<point x="493" y="176"/>
		</contour>
	</outline>
</glyph>
<glyph name="multiply" format="2">
	<advance width="558"/>
	<unicode hex="00D7"/>
	<outline>
		<contour>
			<point x="39" y="210" type="line"/>
			<point x="128" y="104" type="line"/>
			<point x="550" y="457" type="line"/>
			<point x="461" y="563" type="line"/>
		</contour>
		<contour>
			<point x="87" y="454" type="line"/>
			<point x="371" y="101" type="line"/>
			<point x="503" y="214" type="line"/>
			<point x="219" y="567" type="line"/>
		</contour>
	</outline>
</glyph>
<glyph name="Oslash" format="2">
	<advance width="817"/>
	<unicode hex="00D8"/>
	<anchor x="491" y="687" name="top"/>
	<outline>
		<contour>
			<point x="706" y="687" type="line"/>
			<point x="-7" y="0" type="line"/>
			<point x="158" y="0" type="line"/>
			<point x="871" y="687" type="line"/>
		</contour>
		<contour>
			<point x="363" y="-12" type="curve"/>
			<point x="363" y="-12" type="line"/>
			<point x="607" y="-12"/>
			<point x="806" y="173"/>
			<point x="806" y="399" type="curve"/>
			<point x="806" y="570"/>
			<point x="669" y="699"/>
			<point x="486" y="699" type="curve"/>
			<point x="243" y="699"/>
			<point x="44" y="515"/>
			<point x="44" y="289" type="curve"/>
			<point x="44" y="117"/>
			<point x="181" y="-12"/>
		</contour>
		<contour>
			<point x="375" y="164" type="curve"/>
			<point x="375" y="164" type="line"/>
			<point x="300" y="164"/>
			<point x="244" y="220"/>
			<point x="244" y="295" type="curve"/>
			<point x="244" y="420"/>
			<point x="348" y="523"/>
			<point x="475" y="523" type="curve"/>
			<point x="550" y="523"/>
			<point x="606" y="467"/>
			<point x="606" y="392" type="curve"/>
			<point x="606" y="267"/>
			<point x="502" y="164"/>
		</contour>
	</outline>
</glyph>
<glyph name="ae" format="2">
	<advance width="865"/>
	<unicode hex="00E6"/>
	<anchor x="672" y="517" name="top"/>
	<anchor x="590" y="-12" name="bottom"/>
	<outline>
		<contour>
			<point x="199" y="-12" type="curve"/>
			<point x="199" y="-12" type="line"/>
			<point x="285" y="-12"/>
			<point x="354" y="12"/>
			<point x="401" y="57" type="curve"/>
			<point x="442" y="14"/>
			<point x="505" y="-12"/>
			<point x="584" y="-12" type="curve"/>
			<point x="657" y="-12"/>
			<point x="749" y="16"/>
			<point x="805" y="63" type="curve"/>
			<point x="712" y="180" type="line"/>
			<point x="674" y="153"/>
			<point x="627" y="132"/>
			<point x="581" y="132" type="curve"/>
			<point x="534" y="132"/>
			<point x="506" y="163"/>
			<point x="506" y="213" type="curve"/>
			<point x="506" y="295"/>
			<point x="574" y="385"/>
			<point x="659" y="385" type="curve"/>
			<point x="689" y="385"/>
			<point x="711" y="374"/>
			<point x="711" y="359" type="curve"/>
			<point x="711" y="331"/>
			<point x="680" y="314"/>
			<point x="631" y="314" type="curve"/>
			<point x="413" y="314" type="line"/>
			<point x="392" y="213" type="line"/>
			<point x="610" y="213" type="line" smooth="yes"/>
			<point x="771" y="213"/>
			<point x="866" y="272"/>
			<point x="866" y="388" type="curve"/>
			<point x="866" y="471"/>
			<point x="782" y="529"/>
			<point x="664" y="529" type="curve"/>
			<point x="591" y="529"/>
			<point x="524" y="505"/>
			<point x="471" y="466" type="curve"/>
			<point x="439" y="505"/>
			<point x="385" y="529"/>
			<point x="316" y="529" type="curve"/>
			<point x="235" y="529"/>
			<point x="174" y="507"/>
			<point x="95" y="471" type="curve"/>
			<point x="143" y="343" type="line"/>
			<point x="182" y="362"/>
			<point x="226" y="376"/>
			<point x="277" y="376" type="curve"/>
			<point x="338" y="376"/>
			<point x="366" y="358"/>
			<point x="357" y="313" type="curve"/>
			<point x="354" y="297" type="line"/>
			<point x="318" y="315"/>
			<point x="278" y="325"/>
			<point x="239" y="325" type="curve"/>
			<point x="120" y="325"/>
			<point x="15" y="262"/>
			<point x="-5" y="168" type="curve"/>
			<point x="-27" y="64"/>
			<point x="59" y="-12"/>
		</contour>
		<contour>
			<point x="217" y="112" type="curve"/>
			<point x="217" y="112" type="line"/>
			<point x="189" y="112"/>
			<point x="173" y="124"/>
			<point x="177" y="143" type="curve"/>
			<point x="185" y="179"/>
			<point x="223" y="208"/>
			<point x="266" y="208" type="curve"/>
			<point x="288" y="208"/>
			<point x="313" y="206"/>
			<point x="333" y="195" type="curve"/>
			<point x="328" y="171" type="line" smooth="yes"/>
			<point x="321" y="138"/>
			<point x="278" y="112"/>
		</contour>
	</outline>
</glyph>
<glyph name="eth" format="2">
	<advance width="613"/>
	<unicode hex="00F0"/>
	<outline>
		<contour>
			<point x="270" y="149" type="curve"/>
			<point x="270" y="149" type="line"/>
			<point x="224" y="149"/>
			<point x="196" y="172"/>
			<point x="196" y="211" type="curve"/>
			<point x="196" y="275"/>
			<point x="260" y="338"/>
			<point x="333" y="338" type="curve"/>
			<point x="380" y="338"/>
			<point x="407" y="313"/>
			<point x="407" y="277" type="curve"/>
			<point x="407" y="211"/>
			<point x="344" y="149"/>
		</contour>
		<contour>
			<point x="379" y="727" type="curve"/>
			<point x="207" y="664" type="line"/>
			<point x="311" y="588"/>
			<point x="397" y="520"/>
			<point x="416" y="427" type="curve"/>
			<point x="385" y="461"/>
			<point x="346" y="492"/>
			<point x="276" y="492" type="curve"/>
			<point x="127" y="492"/>
			<point x="15" y="355"/>
			<point x="15" y="205" type="curve"/>
			<point x="15" y="76"/>
			<point x="111" y="-12"/>
			<point x="260" y="-12" type="curve"/>
			<point x="456" y="-12"/>
			<point x="601" y="156"/>
			<point x="601" y="358" type="curve"/>
			<point x="601" y="492"/>
			<point x="523" y="594"/>
		</contour>
		<contour>
			<point x="212" y="599" type="line"/>
			<point x="235" y="511" type="line"/>
			<point x="542" y="638" type="line"/>
			<point x="519" y="726" type="line"/>
		</contour>
	</outline>
</glyph>
<glyph name="oslash" format="2">
	<advance width="642"/>
	<unicode hex="00F8"/>
	<outline>
		<contour>
			<point x="542" y="517" type="line"/>
			<point x="-16" y="0" type="line"/>
			<point x="109" y="0" type="line"/>
			<point x="666" y="517" type="line"/>
		</contour>
		<contour>
			<point x="276" y="-12" type="curve"/>
			<point x="276" y="-12" type="line"/>
			<point x="463" y="-12"/>
			<point x="616" y="127"/>
			<point x="616" y="296" type="curve"/>
			<point x="616" y="434"/>
			<point x="513" y="529"/>
			<point x="364" y="529" type="curve"/>
			<point x="177" y="529"/>
			<point x="24" y="391"/>
			<point x="24" y="222" type="curve"/>
			<point x="24" y="83"/>
			<point x="127" y="-12"/>
		</contour>
		<contour>
			<point x="285" y="148" type="curve"/>
			<point x="285" y="148" type="line"/>
			<point x="238" y="148"/>
			<point x="206" y="179"/>
			<point x="206" y="225" type="curve"/>
			<point x="206" y="304"/>
			<point x="273" y="369"/>
			<point x="356" y="369" type="curve"/>
			<point x="402" y="369"/>
			<point x="434" y="338"/>
			<point x="434" y="293" type="curve"/>
			<point x="434" y="213"/>
			<point x="367" y="148"/>
		</contour>
	</outline>
</glyph>
<glyph name="thorn" format="2">
	<advance width="691"/>
	<unicode hex="00FE"/>
	<outline>
		<contour>
			<point x="163" y="699" type="line"/>
			<point x="-18" y="-172" type="line"/>
			<point x="175" y="-172" type="line"/>
			<point x="356" y="699" type="line"/>
		</contour>
		<contour>
			<point x="387" y="-12" type="curve"/>
			<point x="387" y="-12" type="line"/>
			<point x="553" y="-12"/>
			<point x="673" y="147"/>
			<point x="673" y="318" type="curve"/>
			<point x="673" y="444"/>
			<point x="597" y="529"/>
			<point x="475" y="529" type="curve"/>
			<point x="312" y="529"/>
			<point x="193" y="369"/>
			<point x="193" y="199" type="curve"/>
			<point x="193" y="73"/>
			<point x="267" y="-12"/>
		</contour>
		<contour>
			<point x="335" y="148" type="curve"/>
			<point x="335" y="148" type="line"/>
			<point x="288" y="148"/>
			<point x="260" y="175"/>
			<point x="260" y="219" type="curve"/>
			<point x="260" y="292"/>
			<point x="326" y="369"/>
			<point x="406" y="369" type="curve"/>
			<point x="458" y="369"/>
			<point x="489" y="341"/>
			<point x="489" y="296" type="curve"/>
			<point x="489" y="221"/>
			<point x="418" y="148"/>
		</contour>
	</outline>
</glyph>
<glyph name="idotless" format="2">
	<advance width="305"/>
	<unicode hex="0131"/>
	<guideline x="1706" y="0" angle="0"/>
	<anchor x="207" y="517" name="top"/>
	<anchor x="195" y="0" name="bottom"/>
	<outline>
		<contour>
			<point x="110" y="517" type="line"/>
			<point x="2" y="0" type="line"/>
			<point x="195" y="0" type="line"/>
			<point x="303" y="517" type="line"/>
		</contour>
	</outline>
</glyph>
<glyph name="lcaron" format="2">
	<advance width="500"/>
	<unicode hex="013E"/>
	<outline>
		<contour>
			<point x="391" y="462" type="curve"/>
			<point x="439" y="416" type="line"/>
			<point x="505" y="463"/>
			<point x="562" y="529"/>
			<point x="562" y="605" type="curve"/>
			<point x="562" y="660"/>
			<point x="532" y="699"/>
			<point x="485" y="699" type="curve"/>
			<point x="439" y="699"/>
			<point x="397" y="657"/>
			<point x="397" y="607" type="curve"/>
			<point x="397" y="566"/>
			<point x="416" y="534"/>
			<point x="464" y="534" type="curve"/>
			<point x="447" y="510"/>
			<point x="421" y="482"/>
		</contour>
		<contour>
			<point x="155" y="699" type="line"/>
			<point x="10" y="0" type="line"/>
			<point x="203" y="0" type="line"/>
			<point x="348" y="699" type="line"/>
		</contour>
	</outline>
</glyph>
<glyph name="oe" format="2">
	<advance width="951"/>
	<unicode hex="0153"/>
	<anchor x="358" y="517" name="top"/>
	<anchor x="670" y="-12" name="bottom"/>
	<outline>
		<contour>
			<point x="269" y="-12" type="curve"/>
			<point x="269" y="-12" type="line"/>
			<point x="456" y="-12"/>
			<point x="609" y="127"/>
			<point x="609" y="296" type="curve"/>
			<point x="609" y="434"/>
			<point x="506" y="529"/>
			<point x="357" y="529" type="curve"/>
			<point x="170" y="529"/>
			<point x="17" y="391"/>
			<point x="17" y="222" type="curve"/>
			<point x="17" y="83"/>
			<point x="120" y="-12"/>
		</contour>
		<contour>
			<point x="278" y="148" type="curve"/>
			<point x="278" y="148" type="line"/>
			<point x="231" y="148"/>
			<point x="199" y="179"/>
			<point x="199" y="225" type="curve"/>
			<point x="199" y="304"/>
			<point x="266" y="369"/>
			<point x="349" y="369" type="curve"/>
			<point x="395" y="369"/>
			<point x="427" y="338"/>
			<point x="427" y="293" type="curve"/>
			<point x="427" y="213"/>
			<point x="360" y="148"/>
		</contour>
		<contour>
			<point x="670" y="-12" type="curve"/>
			<point x="670" y="-12" type="line"/>
			<point x="743" y="-12"/>
			<point x="835" y="16"/>
			<point x="891" y="63" type="curve"/>
			<point x="798" y="180" type="line"/>
			<point x="760" y="153"/>
			<point x="713" y="132"/>
			<point x="667" y="132" type="curve"/>
			<point x="620" y="132"/>
			<point x="592" y="163"/>
			<point x="592" y="213" type="curve"/>
			<point x="592" y="295"/>
			<point x="660" y="385"/>
			<point x="745" y="385" type="curve"/>
			<point x="775" y="385"/>
			<point x="797" y="374"/>
			<point x="797" y="359" type="curve"/>
			<point x="796" y="331"/>
			<point x="766" y="314"/>
			<point x="717" y="314" type="curve"/>
			<point x="499" y="314" type="line"/>
			<point x="478" y="213" type="line"/>
			<point x="696" y="213" type="line"/>
			<point x="857" y="207"/>
			<point x="952" y="272"/>
			<point x="952" y="388" type="curve"/>
			<point x="952" y="471"/>
			<point x="868" y="529"/>
			<point x="750" y="529" type="curve"/>
			<point x="570" y="529"/>
			<point x="430" y="387"/>
			<point x="430" y="210" type="curve"/>
			<point x="430" y="78"/>
			<point x="522" y="-12"/>
		</contour>
	</outline>
</glyph>
<glyph name="tcaron" format="2">
	<advance width="611"/>
	<unicode hex="0165"/>
	<anchor x="225" y="0" name="bottom"/>
	<outline>
		<contour>
			<point x="212" y="-12" type="curve"/>
			<point x="212" y="-12" type="line"/>
			<point x="262" y="-12"/>
			<point x="315" y="7"/>
			<point x="351" y="36" type="curve"/>
			<point x="336" y="169" type="line"/>
			<point x="326" y="160"/>
			<point x="301" y="148"/>
			<point x="279" y="148" type="curve"/>
			<point x="263" y="148"/>
			<point x="254" y="155"/>
			<point x="254" y="175" type="curve"/>
			<point x="254" y="193"/>
			<point x="261" y="219"/>
			<point x="353" y="659" type="curve"/>
			<point x="169" y="659" type="line"/>
			<point x="73" y="198"/>
			<point x="63" y="167"/>
			<point x="63" y="132" type="curve"/>
			<point x="63" y="48"/>
			<point x="123" y="-12"/>
		</contour>
		<contour>
			<point x="74" y="517" type="line"/>
			<point x="42" y="365" type="line"/>
			<point x="393" y="365" type="line"/>
			<point x="425" y="517" type="line"/>
		</contour>
		<contour>
			<point x="502" y="462" type="curve"/>
			<point x="550" y="416" type="line"/>
			<point x="616" y="463"/>
			<point x="673" y="529"/>
			<point x="673" y="605" type="curve"/>
			<point x="673" y="660"/>
			<point x="643" y="699"/>
			<point x="596" y="699" type="curve"/>
			<point x="550" y="699"/>
			<point x="508" y="657"/>
			<point x="508" y="607" type="curve"/>
			<point x="508" y="566"/>
			<point x="527" y="534"/>
			<point x="575" y="534" type="curve"/>
			<point x="558" y="510"/>
			<point x="532" y="482"/>
		</contour>
	</outline>
</glyph>
<glyph name="circumflex" format="2">
	<advance width="396"/>
	<unicode hex="02C6"/>
	<anchor x="297" y="704" name="top"/>
	<anchor x="259" y="517" name="_top"/>
	<outline>
		<contour>
			<point x="218" y="728" type="line"/>
			<point x="78" y="574" type="line"/>
			<point x="195" y="574" type="line"/>
			<point x="284" y="641" type="line"/>
			<point x="342" y="574" type="line"/>
			<point x="450" y="574" type="line"/>
			<point x="373" y="728" type="line"/>
		</contour>
	</outline>
</glyph>
<glyph name="caron" format="2">
	<advance width="396"/>
	<unicode hex="02C7"/>
	<anchor x="284" y="704" name="top"/>
	<anchor x="246" y="517" name="_top"/>
	<outline>
		<contour>
			<point x="110" y="728" type="line"/>
			<point x="186" y="574" type="line"/>
			<point x="341" y="574" type="line"/>
			<point x="482" y="728" type="line"/>
			<point x="365" y="728" type="line"/>
			<point x="275" y="661" type="line"/>
			<point x="218" y="728" type="line"/>
		</contour>
	</outline>
</glyph>
<glyph name="ring" format="2">
	<advance width="283"/>
	<unicode hex="02DA"/>
	<anchor x="234" y="704" name="top"/>
	<anchor x="195" y="517" name="_top"/>
	<outline>
		<contour>
			<point x="207" y="575" type="curve"/>
			<point x="207" y="575" type="line"/>
			<point x="282" y="575"/>
			<point x="356" y="643"/>
			<point x="356" y="721" type="curve"/>
			<point x="356" y="776"/>
			<point x="315" y="817"/>
			<point x="257" y="817" type="curve"/>
			<point x="183" y="817"/>
			<point x="108" y="750"/>
			<point x="108" y="671" type="curve"/>
			<point x="108" y="616"/>
			<point x="149" y="575"/>
		</contour>
		<contour>
			<point x="222" y="647" type="curve"/>
			<point x="222" y="647" type="line"/>
			<point x="198" y="647"/>
			<point x="182" y="664"/>
			<point x="182" y="687" type="curve"/>
			<point x="182" y="718"/>
			<point x="212" y="745"/>
			<point x="242" y="745" type="curve"/>
			<point x="265" y="745"/>
			<point x="282" y="728"/>
			<point x="282" y="706" type="curve"/>
			<point x="282" y="675"/>
			<point x="252" y="647"/>
		</contour>
	</outline>
</glyph>
<glyph name="ogonek" format="2">
	<advance width="249"/>
	<unicode hex="02DB"/>
	<anchor x="128" y="0" name="_bottom"/>
	<outline>
		<contour>
			<point x="58" y="-173" type="curve"/>
			<point x="58" y="-173" type="line"/>
			<point x="91" y="-173"/>
			<point x="123" y="-163"/>
			<point x="149" y="-143" type="curve"/>
			<point x="136" y="-50" type="line"/>
			<point x="126" y="-60"/>
			<point x="110" y="-66"/>
			<point x="92" y="-66" type="curve"/>
			<point x="79" y="-66"/>
			<point x="72" y="-58"/>
			<point x="72" y="-45" type="curve"/>
			<point x="72" y="-21"/>
			<point x="98" y="0"/>
			<point x="128" y="0" type="curve"/>
			<point x="24" y="42" type="line"/>
			<point x="-20" y="15"/>
			<point x="-43" y="-25"/>
			<point x="-43" y="-73" type="curve"/>
			<point x="-43" y="-136"/>
			<point x="-4" y="-173"/>
		</contour>
	</outline>
</glyph>
<glyph name="tilde" format="2">
	<advance width="421"/>
	<unicode hex="02DC"/>
	<anchor x="303" y="704" name="top"/>
	<anchor x="264" y="517" name="_top"/>
	<outline>
		<contour>
			<point x="357" y="571" type="curve"/>
			<point x="357" y="571" type="line"/>
			<point x="423" y="571"/>
			<point x="464" y="609"/>
			<point x="494" y="704" type="curve"/>
			<point x="407" y="732" type="line"/>
			<point x="396" y="704"/>
			<point x="375" y="683"/>
			<point x="349" y="683" type="curve"/>
			<point x="329" y="683"/>
			<point x="285" y="724"/>
			<point x="225" y="724" type="curve"/>
			<point x="158" y="724"/>
			<point x="118" y="685"/>
			<point x="88" y="590" type="curve"/>
			<point x="174" y="563" type="line"/>
			<point x="186" y="592"/>
			<point x="206" y="612"/>
			<point x="232" y="612" type="curve"/>
			<point x="253" y="612"/>
			<point x="295" y="571"/>
		</contour>
	</outline>
</glyph>
<glyph name="hungarumlaut" format="2">
	<advance width="561"/>
	<unicode hex="02DD"/>
	<anchor x="300" y="704" name="top"/>
	<anchor x="262" y="517" name="_top"/>
	<outline>
		<contour>
			<point x="224" y="738" type="line"/>
			<point x="78" y="574" type="line"/>
			<point x="209" y="574" type="line"/>
			<point x="389" y="710" type="line"/>
		</contour>
		<contour>
			<point x="482" y="738" type="line"/>
			<point x="336" y="574" type="line"/>
			<point x="467" y="574" type="line"/>
			<point x="647" y="710" type="line"/>
		</contour>
	</outline>
</glyph>
<glyph name="bullet" format="2">
	<advance width="387"/>
	<unicode hex="2022"/>
	<outline>
		<contour>
			<point x="184" y="148" type="curve"/>
			<point x="184" y="148" type="line"/>
			<point x="274" y="148"/>
			<point x="352" y="228"/>
			<point x="352" y="316" type="curve"/>
			<point x="352" y="390"/>
			<point x="298" y="447"/>
			<point x="221" y="447" type="curve"/>
			<point x="130" y="447"/>
			<point x="52" y="369"/>
			<point x="52" y="279" type="curve"/>
			<point x="52" y="205"/>
			<point x="106" y="148"/>
		</contour>
	</outline>
</glyph>
<glyph name="guilsinglright" format="2">
	<advance width="376"/>
	<unicode hex="203A"/>
	<outline>
		<contour>
			<point x="0" y="79" type="line"/>
			<point x="140" y="48" type="line"/>
			<point x="348" y="256" type="line"/>
			<point x="221" y="462" type="line"/>
			<point x="77" y="432" type="line"/>
			<point x="178" y="256" type="line"/>
		</contour>
	</outline>
</glyph>
<glyph name="euro" format="2">
	<advance width="805"/>
	<unicode hex="20AC"/>
	<anchor x="552" y="687" name="top"/>
	<anchor x="412" y="0" name="bottom"/>
	<outline>
		<contour>
			<point x="75" y="324" type="line"/>
			<point x="59" y="247" type="line"/>
			<point x="525" y="247" type="line"/>
			<point x="541" y="324" type="line"/>
		</contour>
		<contour>
			<point x="101" y="449" type="line"/>
			<point x="85" y="372" type="line"/>
			<point x="551" y="372" type="line"/>
			<point x="567" y="449" type="line"/>
		</contour>
		<contour>
			<point x="424" y="-12" type="curve"/>
			<point x="424" y="-12" type="line"/>
			<point x="525" y="-12"/>
			<point x="646" y="36"/>
			<point x="722" y="104" type="curve"/>
			<point x="599" y="240" type="line"/>
			<point x="557" y="195"/>
			<point x="490" y="164"/>
			<point x="439" y="164" type="curve"/>
			<point x="373" y="164"/>
			<point x="308" y="215"/>
			<point x="308" y="302" type="curve"/>
			<point x="308" y="414"/>
			<point x="417" y="523"/>
			<point x="532" y="523" type="curve"/>
			<point x="589" y="523"/>
			<point x="631" y="496"/>
			<point x="653" y="459" type="curve"/>
			<point x="813" y="573" type="line"/>
			<point x="758" y="645"/>
			<point x="659" y="699"/>
			<point x="541" y="699" type="curve"/>
			<point x="318" y="699"/>
			<point x="111" y="508"/>
			<point x="111" y="298" type="curve"/>
			<point x="111" y="123"/>
			<point x="254" y="-12"/>
		</contour>
	</outline>
</glyph>
<glyph name="minus" format="2">
	<advance width="651"/>
	<unicode hex="2212"/>
	<outline>
		<contour>
			<point x="107" y="408" type="line"/>
			<point x="76" y="259" type="line"/>
			<point x="575" y="259" type="line"/>
			<point x="606" y="408" type="line"/>
		</contour>
	</outline>
</glyph>
<glyph name="_areas" format="2">
	<advance width="424"/>
	<outline>
		<contour>
			<point x="254" y="808" type="line"/>
			<point x="172" y="813" type="line"/>
			<point x="61" y="279" type="line"/>
			<point x="145" y="283" type="line"/>
			<point x="146" y="288" type="line"/>
			<point x="147" y="293" type="line"/>
			<point x="148" y="298" type="line"/>
			<point x="149" y="303" type="line"/>
			<point x="150" y="308" type="line"/>
			<point x="151" y="313" type="line"/>
			<point x="152" y="318" type="line"/>
			<point x="153" y="323" type="line"/>
			<point x="154" y="328" type="line"/>
			<point x="155" y="333" type="line"/>
			<point x="156" y="338" type="line"/>
			<point x="157" y="343" type="line"/>
			<point x="158" y="348" type="line"/>
			<point x="159" y="353" type="line"/>
			<point x="160" y="358" type="line"/>
			<point x="162" y="363" type="line"/>
			<point x="163" y="368" type="line"/>
			<point x="164" y="373" type="line"/>
			<point x="165" y="378" type="line"/>
			<point x="166" y="383" type="line"/>
			<point x="167" y="388" type="line"/>
			<point x="168" y="393" type="line"/>
			<point x="169" y="398" type="line"/>
			<point x="170" y="403" type="line"/>
			<point x="171" y="408" type="line"/>
			<point x="168" y="413" type="line"/>
			<point x="164" y="418" type="line"/>
			<point x="160" y="423" type="line"/>
			<point x="155" y="428" type="line"/>
			<point x="150" y="433" type="line"/>
			<point x="145" y="438" type="line"/>
			<point x="141" y="443" type="line"/>
			<point x="138" y="448" type="line"/>
			<point x="134" y="453" type="line"/>
			<point x="131" y="458" type="line"/>
			<point x="129" y="463" type="line"/>
			<point x="127" y="468" type="line"/>
			<point x="125" y="473" type="line"/>
			<point x="123" y="478" type="line"/>
			<point x="121" y="483" type="line"/>
			<point x="120" y="488" type="line"/>
			<point x="119" y="493" type="line"/>
			<point x="118" y="498" type="line"/>
			<point x="117" y="503" type="line"/>
			<point x="117" y="508" type="line"/>
			<point x="116" y="513" type="line"/>
			<point x="116" y="518" type="line"/>
			<point x="122" y="523" type="line"/>
			<point x="116" y="528" type="line"/>
			<point x="116" y="533" type="line"/>
			<point x="117" y="538" type="line"/>
			<point x="117" y="543" type="line"/>
			<point x="118" y="548" type="line"/>
			<point x="118" y="553" type="line"/>
			<point x="119" y="558" type="line"/>
			<point x="120" y="563" type="line"/>
			<point x="122" y="568" type="line"/>
			<point x="123" y="573" type="line"/>
			<point x="124" y="578" type="line"/>
			<point x="126" y="583" type="line"/>
			<point x="128" y="588" type="line"/>
			<point x="130" y="593" type="line"/>
			<point x="132" y="598" type="line"/>
			<point x="135" y="603" type="line"/>
			<point x="137" y="608" type="line"/>
			<point x="140" y="613" type="line"/>
			<point x="143" y="618" type="line"/>
			<point x="146" y="623" type="line"/>
			<point x="150" y="628" type="line"/>
			<point x="154" y="633" type="line"/>
			<point x="158" y="638" type="line"/>
			<point x="162" y="643" type="line"/>
			<point x="167" y="648" type="line"/>
			<point x="172" y="653" type="line"/>
			<point x="178" y="658" type="line"/>
			<point x="184" y="663" type="line"/>
			<point x="190" y="668" type="line"/>
			<point x="196" y="673" type="line"/>
			<point x="202" y="678" type="line"/>
			<point x="208" y="683" type="line"/>
			<point x="214" y="688" type="line"/>
			<point x="220" y="693" type="line"/>
			<point x="226" y="698" type="line"/>
			<point x="232" y="703" type="line"/>
			<point x="233" y="708" type="line"/>
			<point x="234" y="713" type="line"/>
			<point x="235" y="718" type="line"/>
			<point x="236" y="723" type="line"/>
			<point x="237" y="728" type="line"/>
			<point x="238" y="733" type="line"/>
			<point x="240" y="738" type="line"/>
			<point x="241" y="743" type="line"/>
			<point x="242" y="748" type="line"/>
			<point x="243" y="753" type="line"/>
			<point x="244" y="758" type="line"/>
			<point x="245" y="763" type="line"/>
			<point x="246" y="768" type="line"/>
			<point x="247" y="773" type="line"/>
			<point x="248" y="778" type="line"/>
			<point x="249" y="783" type="line"/>
			<point x="250" y="788" type="line"/>
			<point x="251" y="793" type="line"/>
			<point x="252" y="798" type="line"/>
			<point x="253" y="803" type="line"/>
		</contour>
		<contour>
			<point x="399" y="808" type="line"/>
			<point x="483" y="813" type="line"/>
			<point x="372" y="279" type="line"/>
			<point x="290" y="283" type="line"/>
			<point x="291" y="288" type="line"/>
			<point x="292" y="293" type="line"/>
			<point x="293" y="298" type="line"/>
			<point x="294" y="303" type="line"/>
			<point x="295" y="308" type="line"/>
			<point x="296" y="313" type="line"/>
			<point x="297" y="318" type="line"/>
			<point x="298" y="323" type="line"/>
			<point x="299" y="328" type="line"/>
			<point x="300" y="333" type="line"/>
			<point x="301" y="338" type="line"/>
			<point x="302" y="343" type="line"/>
			<point x="303" y="348" type="line"/>
			<point x="304" y="353" type="line"/>
			<point x="305" y="358" type="line"/>
			<point x="306" y="363" type="line"/>
			<point x="307" y="368" type="line"/>
			<point x="308" y="373" type="line"/>
			<point x="309" y="378" type="line"/>
			<point x="311" y="383" type="line"/>
			<point x="312" y="388" type="line"/>
			<point x="317" y="393" type="line"/>
			<point x="323" y="398" type="line"/>
			<point x="329" y="403" type="line"/>
			<point x="335" y="408" type="line"/>
			<point x="341" y="413" type="line"/>
			<point x="347" y="418" type="line"/>
			<point x="353" y="423" type="line"/>
			<point x="359" y="428" type="line"/>
			<point x="365" y="433" type="line"/>
			<point x="371" y="438" type="line"/>
			<point x="376" y="443" type="line"/>
			<point x="381" y="448" type="line"/>
			<point x="385" y="453" type="line"/>
			<point x="390" y="458" type="line"/>
			<point x="393" y="463" type="line"/>
			<point x="397" y="468" type="line"/>
			<point x="400" y="473" type="line"/>
			<point x="403" y="478" type="line"/>
			<point x="406" y="483" type="line"/>
			<point x="409" y="488" type="line"/>
			<point x="411" y="493" type="line"/>
			<point x="414" y="498" type="line"/>
			<point x="416" y="503" type="line"/>
			<point x="417" y="508" type="line"/>
			<point x="419" y="513" type="line"/>
			<point x="421" y="518" type="line"/>
			<point x="422" y="523" type="line"/>
			<point x="423" y="528" type="line"/>
			<point x="424" y="533" type="line"/>
			<point x="425" y="538" type="line"/>
			<point x="426" y="543" type="line"/>
			<point x="427" y="548" type="line"/>
			<point x="427" y="553" type="line"/>
			<point x="428" y="558" type="line"/>
			<point x="428" y="563" type="line"/>
			<point x="424" y="568" type="line"/>
			<point x="428" y="573" type="line"/>
			<point x="428" y="578" type="line"/>
			<point x="427" y="583" type="line"/>
			<point x="427" y="588" type="line"/>
			<point x="426" y="593" type="line"/>
			<point x="425" y="598" type="line"/>
			<point x="424" y="603" type="line"/>
			<point x="423" y="608" type="line"/>
			<point x="421" y="613" type="line"/>
			<point x="420" y="618" type="line"/>
			<point x="418" y="623" type="line"/>
			<point x="416" y="628" type="line"/>
			<point x="413" y="633" type="line"/>
			<point x="410" y="638" type="line"/>
			<point x="407" y="643" type="line"/>
			<point x="404" y="648" type="line"/>
			<point x="400" y="653" type="line"/>
			<point x="396" y="658" type="line"/>
			<point x="392" y="663" type="line"/>
			<point x="388" y="668" type="line"/>
			<point x="384" y="673" type="line"/>
			<point x="380" y="678" type="line"/>
			<point x="376" y="683" type="line"/>
			<point x="374" y="688" type="line"/>
			<point x="375" y="693" type="line"/>
			<point x="376" y="698" type="line"/>
			<point x="377" y="703" type="line"/>
			<point x="378" y="708" type="line"/>
			<point x="379" y="713" type="line"/>
			<point x="380" y="718" type="line"/>
			<point x="381" y="723" type="line"/>
			<point x="382" y="728" type="line"/>
			<point x="383" y="733" type="line"/>
			<point x="384" y="738" type="line"/>
			<point x="385" y="743" type="line"/>
			<point x="386" y="748" type="line"/>
			<point x="387" y="753" type="line"/>
			<point x="389" y="758" type="line"/>
			<point x="390" y="763" type="line"/>
			<point x="391" y="768" type="line"/>
			<point x="392" y="773" type="line"/>
			<point x="393" y="778" type="line"/>
			<point x="394" y="783" type="line"/>
			<point x="395" y="788" type="line"/>
			<point x="396" y="793" type="line"/>
			<point x="397" y="798" type="line"/>
			<point x="398" y="803" type="line"/>
		</contour>
	</outline>
</glyph>
<glyph name="a.alt" format="2">
	<advance width="572"/>
	<anchor x="326" y="517" name="top"/>
	<anchor x="478" y="0" name="bottom"/>
	<outline>
		<contour>
			<point x="293" y="0" type="curve"/>
			<point x="293" y="0" type="line"/>
			<point x="478" y="0" type="line"/>
			<point x="539" y="292"/>
			<point x="546" y="316"/>
			<point x="546" y="347" type="curve"/>
			<point x="546" y="459"/>
			<point x="457" y="529"/>
			<point x="337" y="529" type="curve"/>
			<point x="256" y="529"/>
			<point x="175" y="507"/>
			<point x="96" y="471" type="curve"/>
			<point x="144" y="343" type="line"/>
			<point x="183" y="362"/>
			<point x="227" y="376"/>
			<point x="278" y="376" type="curve"/>
			<point x="331" y="376"/>
			<point x="360" y="362"/>
			<point x="360" y="329" type="curve"/>
			<point x="360" y="322"/>
			<point x="368" y="362"/>
		</contour>
		<contour>
			<point x="170" y="-12" type="curve"/>
			<point x="170" y="-12" type="line"/>
			<point x="244" y="-12"/>
			<point x="327" y="27"/>
			<point x="363" y="106" type="curve"/>
			<point x="326" y="171" type="line"/>
			<point x="318" y="141"/>
			<point x="272" y="112"/>
			<point x="218" y="112" type="curve"/>
			<point x="193" y="112"/>
			<point x="177" y="121"/>
			<point x="177" y="137" type="curve"/>
			<point x="177" y="171"/>
			<point x="221" y="208"/>
			<point x="267" y="208" type="curve"/>
			<point x="291" y="208"/>
			<point x="319" y="205"/>
			<point x="340" y="192" type="curve"/>
			<point x="399" y="270" type="line"/>
			<point x="352" y="304"/>
			<point x="296" y="325"/>
			<point x="240" y="325" type="curve"/>
			<point x="114" y="325"/>
			<point x="-7" y="252"/>
			<point x="-7" y="135" type="curve"/>
			<point x="-7" y="48"/>
			<point x="66" y="-12"/>
		</contour>
	</outline>
</glyph>
<glyph name="ae_upper" format="2">
	<advance width="593"/>
	<anchor x="552" y="687" name="_ae_upper"/>
	<outline>
		<contour>
			<point x="497" y="687" type="line"/>
			<point x="-43" y="0" type="line"/>
			<point x="185" y="0" type="line"/>
			<point x="725" y="687" type="line"/>
		</contour>
		<contour>
			<point x="241" y="235" type="line"/>
			<point x="212" y="92" type="line"/>
			<point x="531" y="92" type="line"/>
			<point x="560" y="235" type="line"/>
		</contour>
	</outline>
</glyph>
<glyph name="ascender" format="2">
	<advance width="380"/>
	<anchor x="284" y="247" name="loop_right"/>
	<anchor x="97" y="275" name="loop_left"/>
	<anchor x="291" y="282" name="shoulder"/>
	<anchor x="245" y="108" name="k_arms"/>
	<outline>
		<contour>
			<point x="185" y="699" type="line"/>
			<point x="40" y="0" type="line"/>
			<point x="233" y="0" type="line"/>
			<point x="378" y="699" type="line"/>
		</contour>
	</outline>
</glyph>
<glyph name="capital_V" format="2">
	<advance width="801"/>
	<outline>
		<contour>
			<point x="640" y="687" type="line"/>
			<point x="234" y="0" type="line"/>
			<point x="456" y="0" type="line"/>
			<point x="863" y="687" type="line"/>
		</contour>
		<contour>
			<point x="116" y="687" type="line"/>
			<point x="237" y="0" type="line"/>
			<point x="453" y="0" type="line"/>
			<point x="331" y="687" type="line"/>
		</contour>
	</outline>
</glyph>
<glyph name="descender" format="2">
	<advance width="310"/>
	<anchor x="62" y="275" name="loop_left"/>
	<anchor x="249" y="247" name="loop_right"/>
	<outline>
		<contour>
			<point x="112" y="517" type="line"/>
			<point x="-31" y="-172" type="line"/>
			<point x="162" y="-172" type="line"/>
			<point x="305" y="517" type="line"/>
		</contour>
	</outline>
</glyph>
<glyph name="k_arms" format="2">
	<advance width="409"/>
	<anchor x="6" y="108" name="k_arms"/>
	<outline>
		<contour>
			<point x="73" y="171" type="line"/>
			<point x="130" y="0" type="line"/>
			<point x="341" y="0" type="line"/>
			<point x="220" y="294" type="line"/>
			<point x="449" y="517" type="line"/>
			<point x="229" y="517" type="line"/>
			<point x="47" y="324" type="line"/>
			<point x="6" y="108" type="line"/>
		</contour>
	</outline>
</glyph>
<glyph name="lowercase_loop" format="2">
	<advance width="589"/>
	<anchor x="124" y="247" name="_loop_right"/>
	<outline>
		<contour>
			<point x="248" y="-12" type="curve"/>
			<point x="248" y="-12" type="line"/>
			<point x="414" y="-12"/>
			<point x="534" y="147"/>
			<point x="534" y="318" type="curve"/>
			<point x="534" y="444"/>
			<point x="458" y="529"/>
			<point x="336" y="529" type="curve"/>
			<point x="173" y="529"/>
			<point x="54" y="368"/>
			<point x="54" y="199" type="curve"/>
			<point x="54" y="73"/>
			<point x="128" y="-12"/>
		</contour>
		<contour>
			<point x="196" y="148" type="curve"/>
			<point x="196" y="148" type="line"/>
			<point x="149" y="148"/>
			<point x="121" y="175"/>
			<point x="121" y="219" type="curve"/>
			<point x="121" y="292"/>
			<point x="187" y="369"/>
			<point x="267" y="369" type="curve"/>
			<point x="319" y="369"/>
			<point x="350" y="341"/>
			<point x="350" y="296" type="curve"/>
			<point x="350" y="221"/>
			<point x="279" y="148"/>
		</contour>
	</outline>
</glyph>
<glyph name="lowercase_loop_reverse" format="2">
	<advance width="531"/>
	<anchor x="437" y="275" name="_loop_left"/>
	<outline>
		<contour>
			<point x="224" y="-12" type="curve"/>
			<point x="224" y="-12" type="line"/>
			<point x="388" y="-12"/>
			<point x="506" y="148"/>
			<point x="506" y="319" type="curve"/>
			<point x="506" y="444"/>
			<point x="431" y="529"/>
			<point x="312" y="529" type="curve"/>
			<point x="146" y="529"/>
			<point x="26" y="369"/>
			<point x="26" y="200" type="curve"/>
			<point x="26" y="74"/>
			<point x="102" y="-12"/>
		</contour>
		<contour>
			<point x="294" y="148" type="curve"/>
			<point x="294" y="148" type="line"/>
			<point x="241" y="148"/>
			<point x="210" y="176"/>
			<point x="210" y="221" type="curve"/>
			<point x="210" y="298"/>
			<point x="281" y="369"/>
			<point x="365" y="369" type="curve"/>
			<point x="411" y="369"/>
			<point x="439" y="342"/>
			<point x="439" y="298" type="curve"/>
			<point x="439" y="226"/>
			<point x="374" y="148"/>
		</contour>
	</outline>
</glyph>
<glyph name="lowercase_m_shoulder" format="2">
	<advance width="477"/>
	<guideline x="721" y="0" angle="0"/>
	<anchor x="75" y="282" name="_shoulder"/>
	<anchor x="406" y="282" name="shoulder"/>
	<outline>
		<contour>
			<point x="163" y="0" type="curve"/>
			<point x="163" y="0" type="line"/>
			<point x="347" y="0" type="line"/>
			<point x="413" y="318"/>
			<point x="419" y="337"/>
			<point x="419" y="365" type="curve"/>
			<point x="419" y="461"/>
			<point x="347" y="530"/>
			<point x="250" y="530" type="curve"/>
			<point x="165" y="530"/>
			<point x="98" y="476"/>
			<point x="80" y="388" type="curve"/>
			<point x="78" y="293" type="line"/>
			<point x="85" y="331"/>
			<point x="129" y="370"/>
			<point x="180" y="370" type="curve"/>
			<point x="220" y="370"/>
			<point x="226" y="345"/>
			<point x="228" y="323" type="curve"/>
			<point x="229" y="312"/>
			<point x="210" y="227"/>
		</contour>
	</outline>
</glyph>
<glyph name="lowercase_nh_shoulder" format="2">
	<advance width="438"/>
	<anchor x="60" y="282" name="_shoulder"/>
	<outline>
		<contour>
			<point x="151" y="0" type="curve"/>
			<point x="151" y="0" type="line"/>
			<point x="335" y="0" type="line"/>
			<point x="399" y="305"/>
			<point x="407" y="331"/>
			<point x="407" y="369" type="curve"/>
			<point x="407" y="462"/>
			<point x="344" y="529"/>
			<point x="243" y="529" type="curve"/>
			<point x="150" y="529"/>
			<point x="71" y="475"/>
			<point x="48" y="387" type="curve"/>
			<point x="60" y="282" type="line"/>
			<point x="68" y="328"/>
			<point x="113" y="369"/>
			<point x="163" y="369" type="curve"/>
			<point x="195" y="369"/>
			<point x="215" y="351"/>
			<point x="215" y="317" type="curve"/>
			<point x="215" y="302"/>
			<point x="212" y="289"/>
		</contour>
	</outline>
</glyph>
